<svg width="37" height="37" viewBox="0 0 37 37" fill="none" xmlns="http://www.w3.org/2000/svg">
<path d="M18.6087 0.619751C28.4708 0.619751 36.489 8.63791 36.489 18.5C36.489 28.3622 28.4708 36.3309 18.6087 36.3309C8.74658 36.3309 0.777832 28.3622 0.777832 18.5C0.777832 8.63791 8.74658 0.619751 18.6087 0.619751ZM18.7075 21.0899L24.3861 26.8178C25.0841 27.5159 26.2284 27.5159 26.9265 26.8178C27.5735 26.1707 27.5735 25.0248 26.9265 24.3268L21.248 18.5988L26.9265 12.8709C27.5735 12.1728 27.5735 11.0285 26.9265 10.3799C26.2284 9.68181 25.0841 9.68181 24.3861 10.3799L18.7075 16.1078L13.029 10.3799C12.3309 9.68181 11.1866 9.68181 10.4886 10.3799C9.84149 11.0269 9.84149 12.1728 10.4886 12.8709L16.1671 18.5988L10.4886 24.3268C9.84149 25.0248 9.84149 26.1692 10.4886 26.8178C11.1866 27.5159 12.3309 27.5159 13.029 26.8178L18.7075 21.0899Z" fill="#FF4444"/>
</svg>
