<svg width="35" height="35" viewBox="0 0 35 35" fill="none" xmlns="http://www.w3.org/2000/svg">
<path d="M27.7083 16.0417H10.4125L15.7062 9.68334C15.8288 9.53588 15.9211 9.36572 15.9779 9.18258C16.0347 8.99943 16.0549 8.8069 16.0373 8.61596C16.0197 8.42502 15.9647 8.23941 15.8753 8.06974C15.786 7.90007 15.6641 7.74966 15.5166 7.62709C15.3692 7.50453 15.199 7.41221 15.0159 7.3554C14.8327 7.2986 14.6402 7.27842 14.4493 7.29602C14.2583 7.31363 14.0727 7.36867 13.903 7.458C13.7334 7.54734 13.583 7.66921 13.4604 7.81668L6.16873 16.5667C6.11967 16.6363 6.0758 16.7094 6.03748 16.7854C6.03748 16.8583 6.03748 16.9021 5.9354 16.975C5.8693 17.1422 5.83469 17.3202 5.83331 17.5C5.83469 17.6798 5.8693 17.8578 5.9354 18.025C5.9354 18.0979 5.9354 18.1417 6.03748 18.2146C6.0758 18.2906 6.11967 18.3637 6.16873 18.4333L13.4604 27.1833C13.5975 27.348 13.7692 27.4804 13.9633 27.5711C14.1574 27.6618 14.3691 27.7087 14.5833 27.7083C14.9241 27.709 15.2543 27.5903 15.5166 27.3729C15.6643 27.2505 15.7864 27.1001 15.8759 26.9305C15.9653 26.7608 16.0204 26.5751 16.0381 26.3841C16.0557 26.1931 16.0354 26.0005 15.9785 25.8174C15.9215 25.6342 15.829 25.464 15.7062 25.3167L10.4125 18.9583H27.7083C28.0951 18.9583 28.466 18.8047 28.7395 18.5312C29.013 18.2577 29.1666 17.8868 29.1666 17.5C29.1666 17.1132 29.013 16.7423 28.7395 16.4688C28.466 16.1953 28.0951 16.0417 27.7083 16.0417Z" fill="white"/>
</svg>
